<svg version="1.2" xmlns="http://www.w3.org/2000/svg" viewBox="0 0 200 100" width="200" height="100">
	<style>
		.s0 { fill: #0b082e } 
		.s1 { fill: #ffffff;stroke: #000000;stroke-miterlimit:10 } 
	</style>
	<g id="Layer 1">
		<path id="B&amp;B" class="s0" aria-label="B&amp;B"  d="m69.1 43.2h-6.7v11.4h6.7q3.4 0 5-1.4 1.6-1.4 1.6-4.3 0-2.9-1.6-4.3-1.6-1.4-5-1.4zm-0.5-12.7h-6.2v9.3h6.2q3 0 4.5-1.1 1.5-1.2 1.5-3.6 0-2.3-1.5-3.5-1.5-1.1-4.5-1.1zm-10.4 27.5v-31h10.7q4.8 0 7.4 2 2.6 2 2.6 5.7 0 2.8-1.4 4.5-1.3 1.7-3.9 2.1 3.1 0.7 4.8 2.8 1.7 2.1 1.7 5.2 0 4.2-2.8 6.4-2.8 2.3-8 2.3zm46.1-5.4l-10.9-11.3q-1.9 1.7-2.8 3.4-0.9 1.7-0.9 3.5 0 3 2.2 5 2.2 2 5.5 2 2 0 3.7-0.6 1.7-0.7 3.2-2zm-8-13.6l10.5 10.8q1.2-1.8 1.9-3.9 0.7-2.2 0.8-4.5h3.9q-0.3 2.7-1.3 5.4-1.1 2.7-3 5.3l5.7 5.9h-5.2l-2.9-3q-2.2 1.8-4.6 2.7-2.3 0.9-5.1 0.9-5 0-8.1-2.8-3.2-2.9-3.2-7.4 0-2.6 1.4-4.9 1.4-2.4 4.2-4.4-1-1.3-1.6-2.6-0.5-1.3-0.5-2.6 0-3.3 2.3-5.4 2.3-2 6.1-2 1.8 0 3.5 0.3 1.7 0.4 3.5 1.2v3.7q-1.8-0.9-3.5-1.4-1.6-0.6-3-0.6-2.2 0-3.6 1.2-1.3 1.1-1.3 3 0 1 0.6 2.1 0.6 1.1 2.5 3zm34.8 4.2h-6.7v11.4h6.7q3.4 0 5-1.4 1.6-1.4 1.6-4.3 0-2.9-1.6-4.3-1.6-1.4-5-1.4zm-0.5-12.7h-6.2v9.3h6.2q3.1 0 4.5-1.1 1.6-1.2 1.6-3.6 0-2.3-1.6-3.5-1.4-1.1-4.5-1.1zm-10.4 27.5v-31h10.7q4.8 0 7.4 2 2.6 2 2.6 5.7 0 2.8-1.4 4.5-1.3 1.7-3.9 2.1 3.1 0.7 4.8 2.8 1.8 2.1 1.8 5.2 0 4.2-2.9 6.4-2.8 2.3-8 2.3z"/>
		<path id="BEHMAN &amp; BERGMAN" class="s0" aria-label="BEHMAN &amp; BERGMAN"  d="m53.4 71.7h-1.5v2.5h1.5q0.7 0 1.1-0.3 0.4-0.3 0.4-1 0-0.6-0.4-0.9-0.4-0.3-1.1-0.3zm-0.1-2.9h-1.4v2.1h1.4q0.7 0 1-0.2 0.3-0.3 0.3-0.8 0-0.6-0.3-0.8-0.3-0.3-1-0.3zm-2.4 6.2v-7h2.4q1.1 0 1.7 0.5 0.6 0.4 0.6 1.3 0 0.6-0.3 1-0.3 0.4-0.9 0.4 0.7 0.2 1.1 0.7 0.4 0.4 0.4 1.2 0 0.9-0.7 1.4-0.6 0.5-1.8 0.5zm7 0v-7h4.4v0.8h-3.4v2.1h3.3v0.8h-3.3v2.5h3.5v0.8zm6 0v-7h1v2.9h3.4v-2.9h0.9v7h-0.9v-3.3h-3.4v3.3zm7 0v-7h1.4l1.7 4.8 1.8-4.8h1.4v7h-0.9v-6.1l-1.8 4.8h-0.9l-1.8-4.8v6.1zm11.6-2.6l-1.3-3.4-1.3 3.4zm-4.4 2.6l2.6-7h1.1l2.6 7h-1l-0.6-1.8h-3.1l-0.7 1.8zm7.9 0v-7h1.3l3.1 5.9v-5.9h0.9v7h-1.3l-3.1-5.8v5.8zm13.9-1.2l-2.5-2.5q-0.4 0.3-0.6 0.7-0.2 0.4-0.2 0.8 0 0.7 0.5 1.1 0.5 0.5 1.2 0.5 0.5 0 0.8-0.2 0.4-0.1 0.8-0.4zm-1.8-3.1l2.3 2.5q0.3-0.5 0.5-0.9 0.1-0.5 0.1-1h0.9q0 0.6-0.3 1.2-0.2 0.6-0.7 1.2l1.3 1.3h-1.1l-0.7-0.7q-0.5 0.4-1 0.6-0.6 0.2-1.2 0.2-1.1 0-1.8-0.6-0.7-0.6-0.7-1.6 0-0.6 0.3-1.2 0.3-0.5 0.9-1-0.2-0.2-0.3-0.5-0.1-0.3-0.1-0.6 0-0.8 0.5-1.2 0.5-0.5 1.4-0.5 0.4 0 0.7 0.1 0.4 0.1 0.8 0.3v0.8q-0.4-0.2-0.8-0.3-0.3-0.1-0.6-0.1-0.5 0-0.8 0.2-0.3 0.3-0.3 0.7 0 0.2 0.1 0.5 0.1 0.2 0.6 0.6zm10.4 1h-1.5v2.5h1.5q0.7 0 1.1-0.3 0.4-0.3 0.4-1 0-0.6-0.4-0.9-0.4-0.3-1.1-0.3zm-0.1-2.9h-1.4v2.1h1.4q0.6 0 1-0.2 0.3-0.3 0.3-0.8 0-0.6-0.3-0.8-0.4-0.3-1-0.3zm-2.4 6.2v-7h2.4q1.1 0 1.7 0.5 0.6 0.4 0.6 1.3 0 0.6-0.3 1-0.3 0.4-0.9 0.4 0.7 0.2 1.1 0.7 0.4 0.4 0.4 1.2 0 0.9-0.7 1.4-0.6 0.5-1.8 0.5zm7 0v-7h4.4v0.8h-3.4v2.1h3.3v0.8h-3.3v2.5h3.5v0.8zm9.3-3.3q0.3 0.1 0.6 0.5 0.3 0.3 0.6 0.9l0.9 1.9h-1l-0.9-1.8q-0.3-0.7-0.7-0.9-0.3-0.2-0.8-0.2h-1.1v2.9h-0.9v-7h2.1q1.2 0 1.8 0.5 0.6 0.5 0.6 1.5 0 0.7-0.3 1.1-0.3 0.5-0.9 0.6zm-1.2-2.9h-1.2v2.5h1.2q0.7 0 1.1-0.3 0.3-0.3 0.3-1 0-0.6-0.3-0.9-0.4-0.3-1.1-0.3zm8.6 5.2v-1.9h-1.5v-0.7h2.5v3q-0.6 0.3-1.2 0.5-0.7 0.2-1.4 0.2-1.7 0-2.6-0.9-0.9-1-0.9-2.7 0-1.7 0.9-2.6 0.9-1 2.6-1 0.7 0 1.3 0.2 0.6 0.2 1.1 0.5v1q-0.5-0.5-1.1-0.7-0.6-0.2-1.2-0.2-1.3 0-2 0.7-0.6 0.7-0.6 2.1 0 1.4 0.6 2.1 0.7 0.8 2 0.8 0.5 0 0.8-0.1 0.4-0.1 0.7-0.3zm3.3 1v-7h1.4l1.8 4.8 1.8-4.8h1.4v7h-0.9v-6.1l-1.8 4.8h-1l-1.8-4.8v6.1zm11.6-2.6l-1.3-3.4-1.2 3.4zm-4.5 2.6l2.7-7h1l2.7 7h-1l-0.6-1.8h-3.2l-0.6 1.8zm7.8 0v-7h1.3l3.1 5.9v-5.9h0.9v7h-1.3l-3-5.8v5.8z"/>
		<path id="Shape 1" fill-rule="evenodd" class="s1" d="m3.44 3.76v91.22zm0.72 91.21h190.22zm190.21 0.93v-91.72zm0.2-91.72h-191.02z"/>
	</g>
</svg>